<svg width="24" height="24" viewBox="0 0 24 24" fill="none" xmlns="http://www.w3.org/2000/svg">
<path d="M12 24C18.6274 24 24 18.6274 24 12C24 5.37258 18.6274 0 12 0C5.37258 0 0 5.37258 0 12C0 18.6274 5.37258 24 12 24Z" fill="#172852"/>
<path d="M9.66604 5.36285C11.0712 4.83725 12.6528 4.83605 14.0844 5.26805C15.948 5.84645 17.5212 7.25285 18.3432 9.01805C18.57 9.52085 18.7872 10.0453 18.8088 10.6045C17.7612 9.99725 16.6128 9.60365 15.462 9.24485C13.6212 8.58125 11.694 8.12045 9.95164 7.20845C9.54604 6.96605 9.02884 6.71765 8.91844 6.21245C8.87404 5.77565 9.33604 5.53205 9.66604 5.36285Z" fill="#FFD83D"/>
<path d="M5.42402 9.61087C5.83082 8.50687 6.49802 7.48207 7.40402 6.72247C7.63442 8.61727 8.44082 10.4485 9.77282 11.8261C11.37 13.4857 13.6452 14.5045 15.96 14.4661C16.8792 14.4949 17.778 14.2825 18.6744 14.1109C17.7924 17.2981 14.2992 19.4137 11.0628 18.9049C9.10922 18.6553 7.30562 17.4985 6.21722 15.8653C4.98962 14.0605 4.68002 11.6641 5.42402 9.61087Z" fill="#FFD83D"/>
<path d="M15.462 9.24481C16.6128 9.60361 17.7612 9.99721 18.8088 10.6044L18.8796 10.6416C18.9768 11.3724 19.0476 12.1176 18.918 12.8496C18.3912 12.6264 17.964 12.234 17.5176 11.8872C16.6584 11.172 15.7812 10.3536 15.462 9.24481Z" fill="#FF6F03"/>
</svg>
